<?xml version="1.0" standalone="no"?><!-- Generator: Gravit.io --><svg xmlns="http://www.w3.org/2000/svg" xmlns:xlink="http://www.w3.org/1999/xlink" style="isolation:isolate" viewBox="0 0 16 16" width="16" height="16"><defs><clipPath id="_clipPath_WCFPoRlIZz6Yd5C7ZZyyDvF4qlr6cG6B"><rect width="16" height="16"/></clipPath></defs><g clip-path="url(#_clipPath_WCFPoRlIZz6Yd5C7ZZyyDvF4qlr6cG6B)"><g id="Group"><line x1="11.765" y1="6.493" x2="9.052" y2="9.206" vector-effect="non-scaling-stroke" stroke-width="0.4" stroke="rgb(255,153,0)" stroke-linejoin="miter" stroke-linecap="round" stroke-miterlimit="10"/><path d=" M 12.67 8.603 C 12.67 8.27 12.94 8 13.273 8 C 13.606 8 13.876 8.27 13.876 8.603 C 13.876 8.936 13.606 9.206 13.273 9.206 C 12.94 9.206 12.67 8.936 12.67 8.603 Z " fill="rgb(234,39,39)"/><path d=" M 13.575 3.892 C 13.575 3.559 13.845 3.289 14.178 3.289 C 14.51 3.289 14.781 3.559 14.781 3.892 C 14.781 4.225 14.51 4.495 14.178 4.495 C 13.845 4.495 13.575 4.225 13.575 3.892 Z " fill="rgb(234,39,39)"/><path d=" M 12.369 5.286 C 12.369 4.954 12.639 4.683 12.972 4.683 C 13.304 4.683 13.575 4.954 13.575 5.286 C 13.575 5.619 13.304 5.889 12.972 5.889 C 12.639 5.889 12.369 5.619 12.369 5.286 Z " fill="rgb(234,39,39)"/><line x1="9.655" y1="4.985" x2="7.846" y2="6.794" vector-effect="non-scaling-stroke" stroke-width="0.4" stroke="rgb(255,153,0)" stroke-linejoin="miter" stroke-linecap="round" stroke-miterlimit="10"/><path d=" M 11.464 2.573 C 11.464 2.24 11.734 1.97 12.067 1.97 C 12.4 1.97 12.67 2.24 12.67 2.573 C 12.67 2.906 12.4 3.176 12.067 3.176 C 11.734 3.176 11.464 2.906 11.464 2.573 Z " fill="rgb(234,39,39)"/><path d=" M 12.683 1.367 C 12.683 1.034 12.953 0.764 13.286 0.764 C 13.619 0.764 13.889 1.034 13.889 1.367 C 13.889 1.7 13.619 1.97 13.286 1.97 C 12.953 1.97 12.683 1.7 12.683 1.367 Z " fill="rgb(234,39,39)"/><path d=" M 10.258 3.779 C 10.258 3.446 10.528 3.176 10.861 3.176 C 11.194 3.176 11.464 3.446 11.464 3.779 C 11.464 4.112 11.194 4.382 10.861 4.382 C 10.528 4.382 10.258 4.112 10.258 3.779 Z " fill="rgb(234,39,39)"/><path d=" M 8.75 1.668 C 8.75 1.335 9.021 1.065 9.353 1.065 C 9.686 1.065 9.956 1.335 9.956 1.668 C 9.956 2.001 9.686 2.271 9.353 2.271 C 9.021 2.271 8.75 2.001 8.75 1.668 Z " fill="rgb(234,39,39)"/><path d=" M 7.541 10.515 C 7.514 10.113 7.38 9.739 7.033 9.417 C 5.908 8.293 4.007 9.417 3.338 10.113 C 2.94 10.511 2.716 11.05 2.716 11.613 C 2.716 12.175 2.94 12.715 3.338 13.112 C 3.419 13.058 3.526 13.032 3.633 13.032 C 3.981 13.032 4.275 13.299 4.329 13.647 C 5.025 13.835 5.801 13.647 6.363 13.085 C 6.631 12.817 6.899 12.469 7.14 12.068 C 7.033 11.907 6.952 11.693 6.952 11.479 C 6.952 11.05 7.193 10.703 7.541 10.515 Z  M 5.706 11.887 C 5.641 11.933 5.56 11.951 5.481 11.937 C 5.402 11.923 5.332 11.879 5.286 11.813 C 5.24 11.747 5.222 11.666 5.236 11.587 C 5.25 11.508 5.294 11.438 5.36 11.392 C 5.521 11.28 5.579 11.097 5.515 10.905 C 5.441 10.698 5.188 10.586 4.965 10.665 C 4.862 10.706 4.745 10.688 4.66 10.618 C 4.575 10.547 4.535 10.436 4.556 10.327 C 4.578 10.219 4.657 10.13 4.762 10.097 C 5.303 9.905 5.895 10.179 6.085 10.708 C 6.236 11.16 6.086 11.62 5.706 11.887 Z " fill="rgb(70,70,70)"/><path d=" M 7.998 3.222 L 2.308 8.913 C 0.857 10.364 0.857 12.697 2.308 14.148 C 3.759 15.599 6.092 15.599 7.543 14.148 L 11.811 9.88" fill="none" vector-effect="non-scaling-stroke" stroke-width="0.4" stroke="rgb(255,0,0)" stroke-linejoin="round" stroke-linecap="round" stroke-miterlimit="10"/></g></g></svg>